<svg width="22" height="18" viewBox="0 0 22 18" fill="none" xmlns="http://www.w3.org/2000/svg">
<path opacity="0.4" d="M16.8867 7.89575C18.2817 7.69975 19.3557 6.50375 19.3587 5.05475C19.3587 3.62675 18.3177 2.44275 16.9527 2.21875" stroke="white" stroke-width="1.5" stroke-linecap="round" stroke-linejoin="round"/>
<path opacity="0.4" d="M18.7285 11.25C20.0795 11.452 21.0225 11.925 21.0225 12.9C21.0225 13.571 20.5785 14.007 19.8605 14.281" stroke="white" stroke-width="1.5" stroke-linecap="round" stroke-linejoin="round"/>
<path fill-rule="evenodd" clip-rule="evenodd" d="M10.8867 11.6641C7.67273 11.6641 4.92773 12.1511 4.92773 14.0961C4.92773 16.0401 7.65573 16.5411 10.8867 16.5411C14.1007 16.5411 16.8447 16.0591 16.8447 14.1131C16.8447 12.1671 14.1177 11.6641 10.8867 11.6641Z" stroke="white" stroke-width="1.5" stroke-linecap="round" stroke-linejoin="round"/>
<path fill-rule="evenodd" clip-rule="evenodd" d="M10.8874 8.888C12.9964 8.888 14.7064 7.179 14.7064 5.069C14.7064 2.96 12.9964 1.25 10.8874 1.25C8.77839 1.25 7.06839 2.96 7.06839 5.069C7.06039 7.171 8.75739 8.881 10.8594 8.888H10.8874Z" stroke="white" stroke-width="1.5" stroke-linecap="round" stroke-linejoin="round"/>
<path opacity="0.4" d="M4.88411 7.89575C3.48811 7.69975 2.41511 6.50375 2.41211 5.05475C2.41211 3.62675 3.45311 2.44275 4.81811 2.21875" stroke="white" stroke-width="1.5" stroke-linecap="round" stroke-linejoin="round"/>
<path opacity="0.4" d="M3.044 11.25C1.693 11.452 0.75 11.925 0.75 12.9C0.75 13.571 1.194 14.007 1.912 14.281" stroke="white" stroke-width="1.5" stroke-linecap="round" stroke-linejoin="round"/>
</svg>
