<svg width="48" height="48" viewBox="0 0 48 48" fill="none" xmlns="http://www.w3.org/2000/svg">
<path fill-rule="evenodd" clip-rule="evenodd" d="M32 16H16C10.4772 16 6 20.4772 6 26V34C6 39.5228 10.4772 44 16 44H32C37.5228 44 42 39.5228 42 34V26C42 20.4772 37.5228 16 32 16ZM16 20H32C35.3137 20 38 22.6863 38 26V34C38 37.3137 35.3137 40 32 40H16C12.6863 40 10 37.3137 10 34V26C10 22.6863 12.6863 20 16 20ZM23 26C22.4477 26 22 26.4477 22 27V33C22 33.5523 22.4477 34 23 34H25C25.5523 34 26 33.5523 26 33V27C26 26.4477 25.5523 26 25 26H23Z" fill="#F38535"/>
<g opacity="0.5">
<path fill-rule="evenodd" clip-rule="evenodd" d="M24 4C29.78 4 33.7848 8.13457 33.9916 13.6992L34 14.1534V17.9999C34 19.1045 33.1046 19.9999 32 19.9999C30.9743 19.9999 30.129 19.2278 30.0135 18.2332L30 17.9999V14.1534C30 10.5096 27.6615 8 24 8C20.4656 8 18.183 10.3038 18.0104 13.7321L18 14.1176V17.9999C18 19.1045 17.1046 19.9999 16 19.9999C14.9743 19.9999 14.129 19.2278 14.0135 18.2332L14 17.9999L14 14.109C14.0248 8.31842 18.067 4 24 4Z" fill="#F38535"/>
</g>
</svg>
