<svg width="48" height="48" viewBox="0 0 48 48" fill="none" xmlns="http://www.w3.org/2000/svg">
<path fill-rule="evenodd" clip-rule="evenodd" d="M34 6H14C8.47715 6 4 10.4772 4 16V32C4 37.5229 8.47715 42 14 42H33.9838L34.4174 41.9904C39.7375 41.7588 43.9802 37.377 43.9878 32.0029L43.994 16.012L44 15.9959C44 10.472 39.5214 5.99494 34 6ZM34.0018 10L34.3542 10.0099C37.3858 10.1829 39.8141 12.6104 39.9898 15.6434L39.9959 15.999L39.9878 31.999C39.9831 35.3111 37.2959 37.997 33.9819 38L14 38C10.6863 38 8 35.3137 8 32V16C8 12.6863 10.6863 10 14 10L34.0018 10Z" fill="#F38535"/>
<g opacity="0.5">
<path fill-rule="evenodd" clip-rule="evenodd" d="M14.5858 16.5858C15.3068 15.8648 16.4412 15.8094 17.2258 16.4194L17.4142 16.5858L19.7574 18.9289C22.0068 21.1784 25.5979 21.2683 27.9547 19.1989L28.2426 18.9289L30.5858 16.5858C31.3668 15.8047 32.6332 15.8047 33.4142 16.5858C34.1352 17.3068 34.1906 18.4412 33.5806 19.2258L33.4142 19.4142L31.0711 21.7574C27.2842 25.5443 21.2157 25.659 17.2905 22.1016L16.9289 21.7574L14.5858 19.4142C13.8047 18.6332 13.8047 17.3668 14.5858 16.5858Z" fill="#F38535"/>
</g>
</svg>
