<svg width="48" height="48" viewBox="0 0 48 48" fill="none" xmlns="http://www.w3.org/2000/svg">
<path fill-rule="evenodd" clip-rule="evenodd" d="M33.7996 12.0002C32.8747 7.43632 28.8467 4.00018 24.0163 4.00018C21.3689 3.989 18.8182 5.03827 16.9368 6.91562C15.535 8.31444 14.5909 10.0871 14.201 12.0002H13.8969C10.0125 12.0002 6.72681 14.7508 5.81161 19.486L4.24446 31.1203C2.85362 40.0075 7.28945 44.0002 15.6824 44.0002H32.2981C40.0824 44.0002 44.8432 39.5281 43.8728 31.591L42.2603 19.5991C41.1586 14.7708 37.9619 12.0002 34.1565 12.0002H33.7996ZM29.6588 12.0002C28.8371 9.6694 26.6189 8.00017 24.0079 8.00016C22.4175 7.99346 20.8898 8.62193 19.7622 9.74708C19.1201 10.3879 18.6378 11.1597 18.3415 12.0002H29.6588ZM15.9993 16.0002L13.8969 16.0002C11.9409 16.0002 10.2927 17.38 9.75744 20.132L8.20259 31.6959C7.22797 37.9257 9.53269 40.0002 15.6824 40.0002H32.2981C37.9517 40.0002 40.6952 37.3341 39.8445 31.6532L38.329 20.3138C37.6635 17.42 36.0253 16.0002 34.1565 16.0002L31.9993 16.0002H15.9993Z" fill="#F38535"/>
<g opacity="0.5">
<path fill-rule="evenodd" clip-rule="evenodd" d="M18 24C19.1046 24 20 23.1046 20 22C20 20.8954 19.1046 20 18 20C16.8954 20 16 20.8954 16 22C16 23.1046 16.8954 24 18 24ZM30 24C31.1046 24 32 23.1046 32 22C32 20.8954 31.1046 20 30 20C28.8954 20 28 20.8954 28 22C28 23.1046 28.8954 24 30 24Z" fill="#F38535"/>
</g>
</svg>
