<svg width="48" height="48" viewBox="0 0 48 48" fill="none" xmlns="http://www.w3.org/2000/svg">
<path fill-rule="evenodd" clip-rule="evenodd" d="M7.82156 26.0081C8.92172 25.9095 9.89352 26.7214 9.99215 27.8216C10.0908 28.9217 9.27887 29.8935 8.17871 29.9921C7.60899 30.0432 7.04774 30.1346 6.46815 30.2744L5.88144 30.4307C4.88579 30.684 4.28565 31.0733 4.1234 31.5168C3.95896 31.964 3.95896 32.5144 4.12518 32.9675C4.21671 33.2185 4.81493 33.6654 6.0693 34.1197C7.10786 34.4958 7.64486 35.6426 7.26873 36.6812C6.8926 37.7197 5.74577 38.2567 4.70721 37.8806C2.44993 37.0631 0.953485 35.9451 0.368592 34.3416C-0.122771 33.002 -0.122771 31.4742 0.368035 30.1394C1.03698 28.3111 2.53265 27.2479 4.41719 26.6857L4.82681 26.5729C5.80336 26.2872 6.8044 26.0993 7.82156 26.0081ZM39.9452 26.0007L40.1787 26.0081C40.9924 26.0811 41.7957 26.2159 42.5495 26.4036L43.1049 26.5542C45.2485 27.0996 46.9142 28.1798 47.6337 30.1397C48.1222 31.4755 48.1222 33.0007 47.6335 34.3402C46.9194 36.2913 45.283 37.3561 43.1284 37.9322C42.0613 38.2176 40.965 37.5839 40.6796 36.5168C40.3943 35.4497 41.028 34.3534 42.0951 34.068C43.1178 33.7945 43.7163 33.4051 43.8765 32.9674C44.0413 32.5157 44.0413 31.9627 43.8779 31.5159C43.7156 31.0739 43.1146 30.6841 42.0502 30.412C41.3255 30.2 40.5811 30.0602 39.8216 29.9921C38.7214 29.8935 37.9095 28.9217 38.0081 27.8215C38.0997 26.8 38.9442 26.0269 39.9452 26.0007ZM24.0001 28.0001C15.0372 28.0001 10.0001 30.5187 10.0001 36.0001C10.0001 41.4816 15.0372 44.0001 24.0001 44.0001C32.963 44.0001 38.0001 41.4816 38.0001 36.0001C38.0001 30.5187 32.963 28.0001 24.0001 28.0001ZM24.0001 32.0001C31.0373 32.0001 34.0001 33.4815 34.0001 36.0001C34.0001 38.5187 31.0373 40.0001 24.0001 40.0001C16.9629 40.0001 14.0001 38.5187 14.0001 36.0001C14.0001 33.4815 16.9629 32.0001 24.0001 32.0001Z" fill="#F38535"/>
<g opacity="0.5">
<path fill-rule="evenodd" clip-rule="evenodd" d="M23.9999 4C18.4554 4 14 8.45496 14 13.9991C14 19.5447 18.4551 24 23.9999 24C29.5449 24 34 19.5447 34 13.9991C34 8.45493 29.5445 4 23.9999 4ZM23.9999 8C27.3355 8 30 10.6642 30 13.9991C30 17.3356 27.3357 20 23.9999 20C20.6643 20 18 17.3356 18 13.9991C18 10.6642 20.6645 8 23.9999 8ZM10 8C11.1046 8 12 8.89543 12 10C12 11.1046 11.1046 12 10 12C7.79146 12 6 13.7912 6 16C6 18.1084 7.6323 19.8363 9.70155 19.989L10 20C11.1046 20 12 20.8954 12 22C12 23.1046 11.1046 24 10 24C5.58243 24 2 20.418 2 16C2 11.582 5.58243 8 10 8ZM38 8C42.4176 8 46 11.582 46 16C46 20.418 42.4176 24 38 24C36.8954 24 36 23.1046 36 22C36 20.9743 36.7721 20.129 37.7668 20.0135L38 20C40.2086 20 42 18.2088 42 16C42 13.7912 40.2086 12 38 12C36.8954 12 36 11.1046 36 10C36 8.89543 36.8954 8 38 8Z" fill="#F38535"/>
</g>
</svg>
