<svg width="53" height="44" viewBox="0 0 53 44" fill="none" xmlns="http://www.w3.org/2000/svg">
<path fill-rule="evenodd" clip-rule="evenodd" d="M39.6 22L39.589 21.8042C41.5602 21.5534 43.2432 22.825 43.9054 23.8876C42.9462 35.1538 33.5126 44 22 44C9.8494 44 0 34.1506 0 22C0 9.8494 9.8494 0 22 0C25.2934 0 28.4064 0.7436 31.2114 2.0394C31.8318 3.4386 31.625 5.5462 30.8902 6.8354C28.2766 5.2976 25.245 4.4 22 4.4C12.2958 4.4 4.4 12.2958 4.4 22C4.4 31.7042 12.2958 39.6 22 39.6C31.7042 39.6 39.6 31.7042 39.6 22ZM21.9996 17.5992C19.5686 17.5992 17.5996 19.5704 17.5996 21.9992C17.5996 24.428 19.5686 26.3992 21.9996 26.3992C24.4306 26.3992 26.3996 24.428 26.3996 21.9992L26.3952 21.9662L33.7872 17.6762C35.9344 16.4332 39.736 16.937 41.9514 18.026L52.7996 11.7274L45.852 8.27556L46.2238 0.285156L35.3448 6.59916C35.1908 9.06536 33.73 12.6184 31.5938 13.8614L24.1512 18.1822C23.5132 17.8236 22.785 17.5992 21.9996 17.5992ZM13.1998 22.0008C13.1998 26.854 17.1466 30.8008 21.9998 30.8008C25.874 30.8008 29.1322 28.2686 30.3048 24.786L35.1976 21.9458L35.1998 22.0008C35.1998 29.2916 29.2906 35.2008 21.9998 35.2008C14.709 35.2008 8.7998 29.2916 8.7998 22.0008C8.7998 14.71 14.709 8.80078 21.9998 8.80078C24.3846 8.80078 26.6154 9.44318 28.5448 10.5476L23.6828 13.3702C23.1372 13.2646 22.5762 13.2008 21.9998 13.2008C17.1466 13.2008 13.1998 17.1476 13.1998 22.0008Z" fill="#F38535"/>
</svg>
