<svg width="40" height="48" viewBox="0 0 40 48" fill="none" xmlns="http://www.w3.org/2000/svg">
<path fill-rule="evenodd" clip-rule="evenodd" d="M18.7041 3.914V0H21.4461V3.928C20.9621 3.884 20.4781 3.858 19.9941 3.858C19.5641 3.858 19.1341 3.878 18.7041 3.914ZM32 18.4034C32 22.1836 30.1972 25.3159 28.5011 28.2629C26.9944 30.8806 25.572 33.352 25.572 36.0014H21.594C21.588 32.2854 23.334 29.2234 25.036 26.2674L25.0473 26.2478C26.5651 23.605 28 21.1067 28 18.4034C28 13.2194 23.85 10.8594 19.994 10.8594C16.144 10.8594 12 13.2194 12 18.4034C12 21.1067 13.4349 23.605 14.9528 26.2478L14.964 26.2674C16.666 29.2234 18.414 32.2854 18.404 36.0014H14.428C14.428 33.352 13.0056 30.8806 11.4989 28.2629C9.80281 25.3159 8 22.1836 8 18.4034C8 10.9574 13.996 6.85938 19.994 6.85938C25.996 6.85938 32 10.9614 32 18.4034ZM24 38H16C15.448 38 15 38.448 15 39C15 39.552 15.448 40 16 40H24C24.552 40 25 39.552 25 39C25 38.448 24.552 38 24 38ZM24 42H16C15.448 42 15 42.448 15 43C15 43.552 15.448 44 16 44H24C24.552 44 25 43.552 25 43C25 42.448 24.552 42 24 42ZM15.5 46H24.5L22.126 47.564C21.818 47.84 21.364 48 20.896 48H19.106C18.636 48 18.184 47.84 17.876 47.564L15.5 46ZM39.9998 19.7635V17.0215H34.9298C34.9658 17.4735 34.9998 17.9275 34.9998 18.4015C34.9998 18.8675 34.9638 19.3175 34.9238 19.7635H39.9998ZM9.1377 2.62022L11.2177 6.50022C11.9837 5.99222 12.7917 5.55222 13.6277 5.19022L11.5537 1.32422L9.1377 2.62022ZM32.3896 9.97159L36.2736 7.18359L37.8716 9.41359L33.7636 12.3596C33.3816 11.4996 32.9176 10.7056 32.3896 9.97159ZM28.4461 1.32422L26.3701 5.19222C27.2081 5.55622 28.0161 5.99422 28.7801 6.50222L30.8621 2.62022L28.4461 1.32422ZM6.23398 12.3615L2.12598 9.4175L3.72398 7.1875L7.60798 9.9735C7.07998 10.7055 6.61798 11.4995 6.23398 12.3615ZM38.3555 26.7127L33.6475 24.8047C33.2935 25.6667 32.8975 26.4967 32.4775 27.2907L37.3275 29.2547L38.3555 26.7127ZM7.4317 27.1149L2.7197 29.2349L1.5957 26.7329L6.2757 24.6289C6.6217 25.4949 7.0177 26.3189 7.4317 27.1149ZM0 19.7635H5.076C5.036 19.3175 5 18.8675 5 18.4015C5 17.9275 5.034 17.4715 5.07 17.0195H0V19.7635Z" fill="#F38535"/>
</svg>
