<svg width="56" height="42" viewBox="0 0 56 42" fill="none" xmlns="http://www.w3.org/2000/svg">
<path fill-rule="evenodd" clip-rule="evenodd" d="M38.2035 28L46.2115 0H55.9999L54.2662 4.66667H49.7652L41.6592 32.6667H10.7682L8.81055 28H38.2035ZM0 7L6.853 23.3333H34.615L39.228 7H0ZM23.333 38.5C23.333 40.4343 21.765 42 19.833 42C17.901 42 16.333 40.4343 16.333 38.5C16.333 36.568 17.901 35 19.833 35C21.765 35 23.333 36.568 23.333 38.5ZM31.5 35C29.568 35 28 36.5657 28 38.5C28 40.4343 29.568 42 31.5 42C33.432 42 35 40.4343 35 38.5C35 36.568 33.432 35 31.5 35ZM33.0632 11.668H7.01855L9.95622 18.668H31.0869L33.0632 11.668Z" fill="#F38535"/>
</svg>
