<svg width="24" height="24" viewBox="0 0 24 24" fill="none" xmlns="http://www.w3.org/2000/svg">
<path d="M2.06111 10.8889H4.22222C4.81159 10.8889 5.37682 11.123 5.79357 11.5398C6.21032 11.9565 6.44444 12.5217 6.44444 13.1111V14.2222C6.44444 14.8116 6.67857 15.3768 7.09532 15.7936C7.51207 16.2103 8.0773 16.4444 8.66667 16.4444C9.25604 16.4444 9.82127 16.6786 10.238 17.0953C10.6548 17.5121 10.8889 18.0773 10.8889 18.6667V21.9389M7.55556 3.03889V4.77778C7.55556 5.51449 7.84821 6.22103 8.36915 6.74196C8.89008 7.2629 9.59662 7.55556 10.3333 7.55556H10.8889C11.4783 7.55556 12.0435 7.78968 12.4602 8.20643C12.877 8.62318 13.1111 9.18841 13.1111 9.77778C13.1111 10.3671 13.3452 10.9324 13.762 11.3491C14.1787 11.7659 14.744 12 15.3333 12C15.9227 12 16.4879 11.7659 16.9047 11.3491C17.3214 10.9324 17.5556 10.3671 17.5556 9.77778C17.5556 9.18841 17.7897 8.62318 18.2064 8.20643C18.6232 7.78968 19.1884 7.55556 19.7778 7.55556H20.96M15.3333 21.4311V18.6667C15.3333 18.0773 15.5675 17.5121 15.9842 17.0953C16.401 16.6786 16.9662 16.4444 17.5556 16.4444H20.96M22 12C22 13.3132 21.7413 14.6136 21.2388 15.8268C20.7363 17.0401 19.9997 18.1425 19.0711 19.0711C18.1425 19.9997 17.0401 20.7363 15.8268 21.2388C14.6136 21.7413 13.3132 22 12 22C10.6868 22 9.38642 21.7413 8.17317 21.2388C6.95991 20.7363 5.85752 19.9997 4.92893 19.0711C4.00035 18.1425 3.26375 17.0401 2.7612 15.8268C2.25866 14.6136 2 13.3132 2 12C2 9.34784 3.05357 6.8043 4.92893 4.92893C6.8043 3.05357 9.34784 2 12 2C14.6522 2 17.1957 3.05357 19.0711 4.92893C20.9464 6.8043 22 9.34784 22 12Z" stroke="#F38535" stroke-width="1.3" stroke-linecap="round" stroke-linejoin="round"/>
</svg>
