<svg width="18" height="18" viewBox="0 0 18 18" fill="none" xmlns="http://www.w3.org/2000/svg">
<path d="M13.9219 13.4922C15.0938 12.2422 15.6797 10.7448 15.6797 9C15.6797 7.61979 15.2891 6.36979 14.5078 5.25C13.7526 4.13021 12.75 3.32292 11.5 2.82812V3.17969C11.5 3.6224 11.3307 4.01302 10.9922 4.35156C10.6536 4.66406 10.263 4.82031 9.82031 4.82031H8.17969V6.5C8.17969 6.73438 8.08854 6.92969 7.90625 7.08594C7.75 7.24219 7.55469 7.32031 7.32031 7.32031H5.67969V9H10.6797C10.9141 9 11.1094 9.07812 11.2656 9.23438C11.4219 9.39062 11.5 9.58594 11.5 9.82031V12.3203H12.3203C13.1016 12.3203 13.6354 12.7109 13.9219 13.4922ZM8.17969 15.6016V14C7.73698 14 7.34635 13.8307 7.00781 13.4922C6.66927 13.1536 6.5 12.763 6.5 12.3203V11.5L2.51562 7.51562C2.38542 8.03646 2.32031 8.53125 2.32031 9C2.32031 10.6927 2.88021 12.1641 4 13.4141C5.14583 14.6641 6.53906 15.3932 8.17969 15.6016ZM3.10156 3.14062C4.74219 1.5 6.70833 0.679688 9 0.679688C11.2917 0.679688 13.2448 1.5 14.8594 3.14062C16.5 4.75521 17.3203 6.70833 17.3203 9C17.3203 11.2917 16.5 13.2578 14.8594 14.8984C13.2448 16.513 11.2917 17.3203 9 17.3203C6.70833 17.3203 4.74219 16.513 3.10156 14.8984C1.48698 13.2578 0.679688 11.2917 0.679688 9C0.679688 6.70833 1.48698 4.75521 3.10156 3.14062Z" fill="url(#paint0_linear_1610_36441)"/>
<defs>
<linearGradient id="paint0_linear_1610_36441" x1="-1" y1="-1.09259" x2="11.1855" y2="22.8797" gradientUnits="userSpaceOnUse">
<stop stop-color="#E6902B"/>
<stop offset="1" stop-color="#A91B3D"/>
</linearGradient>
</defs>
</svg>
