<svg width="20" height="13" viewBox="0 0 20 13" fill="none" xmlns="http://www.w3.org/2000/svg">
<path d="M15 0.445312C15.4427 0.445312 15.8333 0.614583 16.1719 0.953125C16.5104 1.26562 16.6797 1.64323 16.6797 2.08594V3.88281C16.1849 4.0651 15.7812 4.36458 15.4688 4.78125C15.1562 5.19792 15 5.67969 15 6.22656V7.94531H5V6.22656C5 5.67969 4.84375 5.19792 4.53125 4.78125C4.21875 4.36458 3.8151 4.0651 3.32031 3.88281V2.08594C3.32031 1.64323 3.48958 1.26562 3.82812 0.953125C4.16667 0.614583 4.55729 0.445312 5 0.445312H15ZM16.3281 5.09375C16.6667 4.75521 17.0573 4.58594 17.5 4.58594C17.9427 4.58594 18.3333 4.75521 18.6719 5.09375C19.0104 5.43229 19.1797 5.82292 19.1797 6.26562V10.4453C19.1797 10.888 19.0104 11.2786 18.6719 11.6172C18.3333 11.9297 17.9427 12.0859 17.5 12.0859H2.5C2.05729 12.0859 1.66667 11.9297 1.32812 11.6172C0.989583 11.2786 0.820312 10.888 0.820312 10.4453V6.26562C0.820312 5.82292 0.989583 5.43229 1.32812 5.09375C1.66667 4.75521 2.05729 4.58594 2.5 4.58594C2.94271 4.58594 3.33333 4.75521 3.67188 5.09375C4.01042 5.43229 4.17969 5.82292 4.17969 6.26562V8.76562H15.8203V6.26562C15.8203 5.82292 15.9896 5.43229 16.3281 5.09375Z" fill="url(#paint0_linear_1610_36092)"/>
<defs>
<linearGradient id="paint0_linear_1610_36092" x1="-3.25963e-08" y1="-3.82697" x2="12.1855" y2="20.1453" gradientUnits="userSpaceOnUse">
<stop stop-color="#E6902B"/>
<stop offset="1" stop-color="#A91B3D"/>
</linearGradient>
</defs>
</svg>
