<svg width="18" height="20" viewBox="0 0 18 20" fill="none" xmlns="http://www.w3.org/2000/svg">
<path fill-rule="evenodd" clip-rule="evenodd" d="M4.81 0H13.191C16.28 0 18 1.78 18 4.83V15.16C18 18.26 16.28 20 13.191 20H4.81C1.77 20 0 18.26 0 15.16V4.83C0 1.78 1.77 0 4.81 0ZM5.07984 4.66V4.65H8.06884C8.49984 4.65 8.84984 5 8.84984 5.429C8.84984 5.87 8.49984 6.22 8.06884 6.22H5.07984C4.64884 6.22 4.29984 5.87 4.29984 5.44C4.29984 5.01 4.64884 4.66 5.07984 4.66ZM5.07984 10.7398H12.9198C13.3498 10.7398 13.6998 10.3898 13.6998 9.95981C13.6998 9.52981 13.3498 9.17881 12.9198 9.17881H5.07984C4.64884 9.17881 4.29984 9.52981 4.29984 9.95981C4.29984 10.3898 4.64884 10.7398 5.07984 10.7398ZM5.08 15.31H12.92C13.319 15.27 13.62 14.929 13.62 14.53C13.62 14.12 13.319 13.78 12.92 13.74H5.08C4.78 13.71 4.49 13.85 4.33 14.11C4.17 14.36 4.17 14.69 4.33 14.95C4.49 15.2 4.78 15.35 5.08 15.31Z" fill="url(#paint0_linear_2853_753)"/>
<defs>
<linearGradient id="paint0_linear_2853_753" x1="-2.93367e-08" y1="-0.0925926" x2="12.9173" y2="22.7781" gradientUnits="userSpaceOnUse">
<stop stop-color="#E6902B"/>
<stop offset="1" stop-color="#A91B3D"/>
</linearGradient>
</defs>
</svg>
