<svg width="20" height="20" viewBox="0 0 20 20" fill="none" xmlns="http://www.w3.org/2000/svg">
<mask id="mask0_2945_101" style="mask-type:alpha" maskUnits="userSpaceOnUse" x="11" y="0" width="9" height="9">
<path fill-rule="evenodd" clip-rule="evenodd" d="M11.8262 0H20.0004V8.32449H11.8262V0Z" fill="white"/>
</mask>
<g mask="url(#mask0_2945_101)">
<path fill-rule="evenodd" clip-rule="evenodd" d="M19.2821 8.32449C18.9212 8.32449 18.6111 8.0484 18.5699 7.67475C18.2071 4.38117 15.6971 1.82514 12.4644 1.45929C12.0709 1.41442 11.7866 1.05345 11.8307 0.65151C11.8737 0.250544 12.2251 -0.0450588 12.6233 0.00567169C16.5271 0.447612 19.5588 3.53339 19.9962 7.51085C20.0403 7.9128 19.7569 8.27474 19.3635 8.31962C19.3367 8.32254 19.3089 8.32449 19.2821 8.32449Z" fill="#F38535"/>
</g>
<path fill-rule="evenodd" clip-rule="evenodd" d="M15.8926 8.33516C15.5556 8.33516 15.256 8.09322 15.189 7.74396C14.9133 6.30009 13.8211 5.18695 12.4062 4.90695C12.0166 4.82988 11.7629 4.44648 11.8385 4.04941C11.9142 3.65235 12.2971 3.39284 12.68 3.47089C14.6721 3.86503 16.2104 5.43182 16.5981 7.46299C16.6737 7.86103 16.4201 8.24443 16.0314 8.32151C15.9845 8.33029 15.9385 8.33516 15.8926 8.33516Z" fill="#F38535"/>
<mask id="mask1_2945_101" style="mask-type:alpha" maskUnits="userSpaceOnUse" x="0" y="0" width="20" height="20">
<path fill-rule="evenodd" clip-rule="evenodd" d="M0 0H19.6244V20H0V0Z" fill="white"/>
</mask>
<g mask="url(#mask1_2945_101)">
<path fill-rule="evenodd" clip-rule="evenodd" d="M2.25835 2.98679C2.26026 2.98679 2.2124 3.03752 2.15209 3.098C1.92043 3.32727 1.44083 3.80433 1.43604 4.80235C1.42839 6.19842 2.32918 8.79055 6.66661 13.21C10.983 17.6079 13.5226 18.5367 14.8963 18.5367H14.9164C15.8957 18.5308 16.3629 18.042 16.5878 17.8069C16.6558 17.7357 16.7113 17.682 16.7506 17.6498C17.705 16.6713 18.1932 15.9445 18.1884 15.4772C18.1827 15.0011 17.6016 14.4392 16.7984 13.6597C16.5428 13.4129 16.2652 13.1426 15.9723 12.8441C15.2122 12.0724 14.8379 12.2041 14.0099 12.5007C12.8659 12.9095 11.2989 13.4695 8.85686 10.9788C6.41389 8.49007 6.96145 6.89303 7.36063 5.72623C7.64973 4.88333 7.78184 4.49992 7.02272 3.72531C6.72596 3.42287 6.45888 3.13605 6.21286 2.87264C5.45278 2.05901 4.90426 1.47073 4.43998 1.4639H4.43232C3.97379 1.4639 3.26157 1.9634 2.25356 2.99069C2.25643 2.98776 2.25739 2.98679 2.25835 2.98679ZM14.8963 20C12.5107 20 9.40054 18.0645 5.65185 14.2451C1.88783 10.41 -0.0142785 7.23059 8.06925e-05 4.79456C0.00869619 3.18484 0.836741 2.36047 1.14786 2.05121C1.16413 2.03072 1.21965 1.97511 1.2388 1.9556C2.61249 0.555635 3.55637 -0.0199603 4.45812 0.000526957C5.5274 0.0151607 6.28939 0.831726 7.25337 1.86487C7.49173 2.1195 7.74924 2.39754 8.03738 2.69022C9.43405 4.11457 9.03678 5.2765 8.71609 6.20916C8.36764 7.22669 8.0661 8.10472 9.87152 9.94467C11.6769 11.7846 12.5375 11.4773 13.535 11.1193C14.4511 10.7934 15.5884 10.3856 16.9879 11.81C17.2722 12.0997 17.5403 12.3592 17.7892 12.6002C18.8068 13.5875 19.6109 14.367 19.6243 15.4597C19.6348 16.3904 19.0796 17.3406 17.7088 18.7376L17.1018 18.3181L17.6159 18.8284C17.3124 19.1454 16.5055 19.9903 14.925 20H14.8963Z" fill="#F38535"/>
</g>
</svg>
