<svg width="18" height="20" viewBox="0 0 18 20" fill="none" xmlns="http://www.w3.org/2000/svg">
<path fill-rule="evenodd" clip-rule="evenodd" d="M9.00096 6.66737C8.00669 6.66737 7.19788 7.4725 7.19788 8.46327C7.19788 9.45301 8.00669 10.2571 9.00096 10.2571C9.99523 10.2571 10.804 9.45301 10.804 8.46327C10.804 7.4725 9.99523 6.66737 9.00096 6.66737ZM9.00093 11.7956C7.15457 11.7956 5.65234 10.3012 5.65234 8.46326C5.65234 6.62429 7.15457 5.12891 9.00093 5.12891C10.8473 5.12891 12.3495 6.62429 12.3495 8.46326C12.3495 10.3012 10.8473 11.7956 9.00093 11.7956Z" fill="#F38535"/>
<mask id="mask0_2945_25" style="mask-type:alpha" maskUnits="userSpaceOnUse" x="0" y="0" width="18" height="20">
<path fill-rule="evenodd" clip-rule="evenodd" d="M0.5 0H17.5V20H0.5V0Z" fill="white"/>
</mask>
<g mask="url(#mask0_2945_25)">
<path fill-rule="evenodd" clip-rule="evenodd" d="M8.99925 1.53846C5.16435 1.53846 2.04449 4.67385 2.04449 8.52615C2.04449 13.4277 7.83909 18.2031 8.99925 18.4574C10.1594 18.2021 15.954 13.4267 15.954 8.52615C15.954 4.67385 12.8342 1.53846 8.99925 1.53846ZM8.99928 20C7.15086 20 0.499023 14.3056 0.499023 8.52615C0.499023 3.82462 4.31229 0 8.99928 0C13.6863 0 17.4995 3.82462 17.4995 8.52615C17.4995 14.3056 10.8477 20 8.99928 20Z" fill="#F38535"/>
</g>
</svg>
