<svg width="20" height="20" viewBox="0 0 20 20" fill="none" xmlns="http://www.w3.org/2000/svg">
<path fill-rule="evenodd" clip-rule="evenodd" d="M4.15039 0.398438H15.8504C16.8444 0.40035 17.7971 0.796053 18.4999 1.4989C19.2028 2.20175 19.5985 3.15446 19.6004 4.14844V15.8484C19.5985 16.8424 19.2028 17.7951 18.4999 18.498C17.7971 19.2008 16.8444 19.5965 15.8504 19.5984H4.15039C3.15642 19.5965 2.2037 19.2008 1.50085 18.498C0.798006 17.7951 0.402303 16.8424 0.400391 15.8484L0.400391 4.14844C0.402303 3.15446 0.798006 2.20175 1.50085 1.4989C2.2037 0.796053 3.15642 0.40035 4.15039 0.398438V0.398438ZM4.37539 14.9204C4.37544 15.1068 4.44954 15.2856 4.58139 15.4175C4.71324 15.5493 4.89205 15.6234 5.07852 15.6234H8.7585C8.85145 15.6244 8.94366 15.6069 9.02981 15.572C9.11596 15.5371 9.19434 15.4855 9.2604 15.4201C9.32647 15.3547 9.37891 15.2769 9.41471 15.1911C9.4505 15.1053 9.46893 15.0133 9.46893 14.9203C9.46893 14.8274 9.4505 14.7353 9.41471 14.6495C9.37891 14.5638 9.32647 14.4859 9.2604 14.4205C9.19434 14.3552 9.11596 14.3035 9.02981 14.2686C8.94366 14.2337 8.85145 14.2162 8.7585 14.2172H6.77607L9.39357 11.5997C9.52546 11.4678 9.59957 11.289 9.59958 11.1024C9.5996 10.9159 9.52553 10.7371 9.39366 10.6052C9.32836 10.5399 9.25085 10.4881 9.16553 10.4527C9.08021 10.4174 8.98877 10.3992 8.89642 10.3992C8.70991 10.3991 8.53103 10.4732 8.39914 10.6051L5.78164 13.223V11.2403C5.77973 11.0551 5.70481 10.8781 5.57315 10.7478C5.4415 10.6175 5.26375 10.5444 5.07852 10.5444C4.89328 10.5444 4.71553 10.6175 4.58388 10.7478C4.45223 10.8781 4.3773 11.0551 4.37539 11.2403V14.9204ZM15.6254 5.0766C15.6254 4.89013 15.5513 4.71131 15.4194 4.57945C15.2876 4.44759 15.1087 4.37349 14.9223 4.37344H11.2423C11.1493 4.37248 11.0571 4.38996 10.971 4.42486C10.8848 4.45977 10.8064 4.5114 10.7404 4.57679C10.6743 4.64218 10.6219 4.72001 10.5861 4.8058C10.5503 4.89158 10.5319 4.98361 10.5319 5.07656C10.5319 5.16951 10.5503 5.26154 10.5861 5.34733C10.6219 5.43311 10.6743 5.51095 10.7404 5.57633C10.8064 5.64172 10.8848 5.69336 10.971 5.72826C11.0571 5.76317 11.1493 5.78065 11.2423 5.77969H13.2249L10.607 8.39719C10.4751 8.52908 10.401 8.70797 10.401 8.89449C10.401 9.08102 10.4751 9.25991 10.607 9.3918C10.7389 9.52369 10.9178 9.59779 11.1043 9.59779C11.2909 9.59779 11.4697 9.52369 11.6016 9.3918L14.2191 6.77393V8.75659C14.2211 8.94181 14.296 9.1188 14.4276 9.2491C14.5593 9.3794 14.737 9.45249 14.9223 9.45249C15.1075 9.45249 15.2852 9.3794 15.4169 9.2491C15.5486 9.1188 15.6235 8.94181 15.6254 8.75659V5.0766Z" fill="url(#paint0_linear_1617_35865)"/>
<defs>
<linearGradient id="paint0_linear_1617_35865" x1="0.400391" y1="0.309549" x2="12.0985" y2="23.3229" gradientUnits="userSpaceOnUse">
<stop stop-color="#E6902B"/>
<stop offset="1" stop-color="#A91B3D"/>
</linearGradient>
</defs>
</svg>
