<svg width="22" height="16" viewBox="0 0 22 16" fill="none" xmlns="http://www.w3.org/2000/svg">
<path fill-rule="evenodd" clip-rule="evenodd" d="M15.1583 4.23285C15.1583 6.58253 13.2851 8.4666 10.949 8.4666C8.61292 8.4666 6.73974 6.58253 6.73974 4.23285C6.73974 1.88227 8.61292 0 10.949 0C13.2851 0 15.1583 1.88227 15.1583 4.23285ZM10.9488 15.9999C7.51765 15.9999 4.58789 15.456 4.58789 13.2801C4.58789 11.1033 7.49884 10.5396 10.9488 10.5396C14.38 10.5396 17.3098 11.0835 17.3098 13.2603C17.3098 15.4361 14.3988 15.9999 10.9488 15.9999ZM16.9573 4.30914C16.9573 5.50694 16.6 6.6228 15.9732 7.55042C15.9088 7.64589 15.9661 7.77467 16.0798 7.79449C16.2365 7.8215 16.3985 7.83681 16.5633 7.84132C18.2064 7.88455 19.6811 6.82093 20.0885 5.21965C20.692 2.84115 18.92 0.705811 16.6636 0.705811C16.4182 0.705811 16.1836 0.731928 15.9553 0.77876C15.924 0.785965 15.8908 0.800374 15.8729 0.828293C15.8515 0.862516 15.8676 0.908447 15.8891 0.938167C16.5669 1.89371 16.9573 3.0591 16.9573 4.30914ZM19.6783 9.51248C20.7824 9.72953 21.5085 10.1726 21.8094 10.8166C22.0637 11.3452 22.0637 11.9585 21.8094 12.4863C21.3492 13.4851 19.8655 13.8057 19.2888 13.8885C19.1698 13.9065 19.074 13.803 19.0865 13.6832C19.3811 10.9156 17.0378 9.60344 16.4316 9.30174C16.4057 9.28823 16.4003 9.26752 16.403 9.25491C16.4048 9.2459 16.4155 9.23149 16.4352 9.22879C17.747 9.20447 19.1572 9.38459 19.6783 9.51248ZM5.43711 7.84132C5.60186 7.83681 5.76303 7.8224 5.92063 7.79448C6.03434 7.77467 6.09165 7.64588 6.02718 7.55042C5.4004 6.62279 5.04313 5.50694 5.04313 4.30913C5.04313 3.05909 5.43353 1.89371 6.11135 0.938162C6.13284 0.908442 6.14806 0.862511 6.12746 0.828288C6.10956 0.80127 6.07553 0.785959 6.04509 0.778754C5.81586 0.731923 5.58127 0.705805 5.33593 0.705805C3.07951 0.705805 1.30751 2.84114 1.91191 5.21965C2.31932 6.82093 3.79404 7.88454 5.43711 7.84132ZM5.59694 9.25446C5.59963 9.26797 5.59425 9.28778 5.56918 9.30219C4.9621 9.60389 2.61883 10.9161 2.91342 13.6827C2.92595 13.8034 2.83104 13.9061 2.71195 13.889C2.13531 13.8061 0.651629 13.4855 0.191392 12.4867C-0.0637975 11.9581 -0.0637975 11.3457 0.191392 10.817C0.492248 10.1731 1.21752 9.72998 2.32156 9.51203C2.84358 9.38504 4.25294 9.20492 5.5656 9.22924C5.5853 9.23194 5.59515 9.24635 5.59694 9.25446Z" fill="url(#paint0_linear_2853_327)"/>
<defs>
<linearGradient id="paint0_linear_2853_327" x1="-3.58561e-08" y1="-0.0740737" x2="7.84883" y2="21.1573" gradientUnits="userSpaceOnUse">
<stop stop-color="#E6902B"/>
<stop offset="1" stop-color="#A91B3D"/>
</linearGradient>
</defs>
</svg>
