<svg width="20" height="20" viewBox="0 0 20 20" fill="none" xmlns="http://www.w3.org/2000/svg">
<path d="M15.1805 6.06406C15.8432 6.06406 16.3805 5.5268 16.3805 4.86406C16.3805 4.20132 15.8432 3.66406 15.1805 3.66406C14.5177 3.66406 13.9805 4.20132 13.9805 4.86406C13.9805 5.5268 14.5177 6.06406 15.1805 6.06406Z" fill="#F38535"/>
<path d="M10 15C7.2425 15 5 12.7575 5 10C5 7.2425 7.2425 5 10 5C12.7575 5 15 7.2425 15 10C15 12.7575 12.7575 15 10 15ZM10 7.5C8.62125 7.5 7.5 8.62125 7.5 10C7.5 11.3787 8.62125 12.5 10 12.5C11.3787 12.5 12.5 11.3787 12.5 10C12.5 8.62125 11.3787 7.5 10 7.5Z" fill="#F38535"/>
<path d="M15 20H5C2.43 20 0 17.57 0 15V5C0 2.43 2.43 0 5 0H15C17.57 0 20 2.43 20 5V15C20 17.57 17.57 20 15 20ZM5 2.5C3.83125 2.5 2.5 3.83125 2.5 5V15C2.5 16.1912 3.80875 17.5 5 17.5H15C16.1688 17.5 17.5 16.1688 17.5 15V5C17.5 3.83125 16.1688 2.5 15 2.5H5Z" fill="#F38535"/>
</svg>
