<svg width="20" height="16" viewBox="0 0 20 16" fill="none" xmlns="http://www.w3.org/2000/svg">
<path d="M20 1.84615C19.25 2.21538 18.5 2.33846 17.625 2.46154C18.5 1.96923 19.125 1.23077 19.375 0.246154C18.625 0.738462 17.75 0.984615 16.75 1.23077C16 0.492308 14.875 0 13.75 0C11.625 0 9.75 1.84615 9.75 4.06154C9.75 4.43077 9.75 4.67692 9.875 4.92308C6.5 4.8 3.375 3.2 1.375 0.738461C1 1.35385 0.875 1.96923 0.875 2.83077C0.875 4.18462 1.625 5.41538 2.75 6.15385C2.125 6.15385 1.5 5.90769 0.875 5.66154C0.875 7.63077 2.25 9.23077 4.125 9.6C3.75 9.72308 3.375 9.72308 3 9.72308C2.75 9.72308 2.5 9.72308 2.25 9.6C2.75 11.2 4.25 12.4308 6.125 12.4308C4.75 13.5385 3 14.1538 1 14.1538C0.625 14.1538 0.375 14.1538 0 14.1538C1.875 15.2615 4 16 6.25 16C13.75 16 17.875 9.84615 17.875 4.55385C17.875 4.43077 17.875 4.18462 17.875 4.06154C18.75 3.44615 19.5 2.70769 20 1.84615Z" fill="#F38535"/>
</svg>
