<svg width="20" height="20" viewBox="0 0 20 20" fill="none" xmlns="http://www.w3.org/2000/svg">
<path d="M20 10.0608C20.0004 8.14963 19.4532 6.27839 18.4231 4.66862C17.393 3.05885 15.9232 1.77798 14.1877 0.977656C12.4522 0.177335 10.5237 -0.108909 8.63053 0.152816C6.73739 0.414541 4.9589 1.21327 3.50564 2.45444C2.05237 3.69561 0.985206 5.32722 0.430495 7.15609C-0.124217 8.98496 -0.143239 10.9345 0.37568 12.7738C0.894599 14.6132 1.92973 16.2653 3.35849 17.5346C4.78726 18.8039 6.54983 19.6372 8.4375 19.9358V12.9508H5.89875V10.0608H8.4375V7.85702C8.38284 7.34259 8.44199 6.82242 8.61078 6.33339C8.77957 5.84437 9.05386 5.39845 9.4142 5.02725C9.77455 4.65605 10.2121 4.36866 10.6959 4.18544C11.1797 4.00221 11.6979 3.92765 12.2137 3.96703C12.9638 3.97688 13.7121 4.04206 14.4525 4.16202V6.62578H13.1925C12.9779 6.59771 12.7597 6.61826 12.554 6.68592C12.3484 6.75358 12.1607 6.8666 12.0046 7.01663C11.8486 7.16667 11.7283 7.34986 11.6526 7.55267C11.577 7.75548 11.5479 7.9727 11.5675 8.18828V10.0633H14.3412L13.8975 12.9533H11.5625V19.942C13.9153 19.5698 16.058 18.37 17.6048 16.5585C19.1516 14.747 20.001 12.4428 20 10.0608Z" fill="#F38535"/>
</svg>
